<svg xmlns="http://www.w3.org/2000/svg" width="20.735" height="20.735" viewBox="0 0 20.735 20.735">
  <g id="_00-38-apps_-arrange_-array_-grid_-layout_-menu_-view" data-name="00-38-apps,-arrange,-array,-grid,-layout,-menu,-view" transform="translate(-6 -6)">
    <path id="Shape" d="M25.007,16.943a1.736,1.736,0,0,1,1.728,1.728v6.336a1.728,1.728,0,0,1-1.728,1.728H18.671a1.736,1.736,0,0,1-1.728-1.728V18.671a1.729,1.729,0,0,1,1.728-1.728Zm-10.943,0a1.736,1.736,0,0,1,1.728,1.728v6.336a1.728,1.728,0,0,1-1.728,1.728H7.728A1.736,1.736,0,0,1,6,25.007V18.671a1.729,1.729,0,0,1,1.728-1.728ZM14.063,6a1.736,1.736,0,0,1,1.728,1.728v6.336a1.728,1.728,0,0,1-1.728,1.728H7.728A1.736,1.736,0,0,1,6,14.063V7.728A1.729,1.729,0,0,1,7.728,6Z" fill="#2eaff0"/>
    <path id="Path" d="M33.063,6a1.736,1.736,0,0,1,1.728,1.728v6.336a1.728,1.728,0,0,1-1.728,1.728H26.728A1.736,1.736,0,0,1,25,14.063V7.728A1.729,1.729,0,0,1,26.728,6Z" transform="translate(-8.057)" fill="#a5e1ff"/>
  </g>
</svg>
