<svg xmlns="http://www.w3.org/2000/svg" width="22" height="29.333" viewBox="0 0 22 29.333">
  <g id="passport_1_" data-name="passport (1)" transform="translate(-64)">
    <g id="Group_157119" data-name="Group 157119" transform="translate(64)">
      <g id="Group_157118" data-name="Group 157118" transform="translate(0)">
        <path id="Path_96211" data-name="Path 96211" d="M226.207,208.167c.688,0,1.695-2.178,1.811-5.5H224.4C224.512,205.989,225.519,208.167,226.207,208.167Z" transform="translate(-215.207 -191.056)" fill="#2eaff0"/>
        <path id="Path_96212" data-name="Path 96212" d="M290.159,91.452a12.874,12.874,0,0,1,1.087,5.149h3A6.085,6.085,0,0,0,290.159,91.452Z" transform="translate(-277.202 -86.213)" fill="#2eaff0"/>
        <path id="Path_96213" data-name="Path 96213" d="M150.411,96.6h3a12.874,12.874,0,0,1,1.087-5.149A6.085,6.085,0,0,0,150.411,96.6Z" transform="translate(-145.46 -86.213)" fill="#2eaff0"/>
        <path id="Path_96214" data-name="Path 96214" d="M226.207,85.333c-.688,0-1.695,2.178-1.811,5.5h3.621C227.9,87.511,226.894,85.333,226.207,85.333Z" transform="translate(-215.207 -80.444)" fill="#2eaff0"/>
        <path id="Path_96215" data-name="Path 96215" d="M83.556,0H66.444A2.447,2.447,0,0,0,64,2.444V26.889a2.447,2.447,0,0,0,2.444,2.444H83.556A2.447,2.447,0,0,0,86,26.889V2.444A2.447,2.447,0,0,0,83.556,0ZM79.278,25.667H70.722a.611.611,0,1,1,0-1.222h8.556a.611.611,0,0,1,0,1.222ZM81.722,22H68.278a.611.611,0,1,1,0-1.222H81.722a.611.611,0,1,1,0,1.222ZM75,18.333A7.333,7.333,0,1,1,82.333,11,7.341,7.341,0,0,1,75,18.333Z" transform="translate(-64)" fill="#2eaff0"/>
        <path id="Path_96216" data-name="Path 96216" d="M290.159,207.816a6.085,6.085,0,0,0,4.092-5.149h-3A12.874,12.874,0,0,1,290.159,207.816Z" transform="translate(-277.202 -191.056)" fill="#2eaff0"/>
        <path id="Path_96217" data-name="Path 96217" d="M150.411,202.667a6.085,6.085,0,0,0,4.092,5.149,12.874,12.874,0,0,1-1.087-5.149Z" transform="translate(-145.46 -191.056)" fill="#2eaff0"/>
      </g>
    </g>
  </g>
</svg>
