<svg xmlns="http://www.w3.org/2000/svg" xmlns:xlink="http://www.w3.org/1999/xlink" width="1239.7" height="1219.005" viewBox="0 0 1239.7 1219.005">
  <defs>
    <radialGradient id="radial-gradient" cx="0.064" cy="0.629" r="0.5" gradientUnits="objectBoundingBox">
      <stop offset="0" stop-color="#00aaf8"/>
      <stop offset="0.659" stop-color="#0160d6"/>
      <stop offset="1" stop-color="#0160d6"/>
    </radialGradient>
  </defs>
  <g id="Path_95469" data-name="Path 95469" transform="translate(-25.929 110.447)" fill="url(#radial-gradient)">
    <path d="M 1163.634765625 1108.057739257812 C 1151.809204101562 1108.058227539062 1138.55322265625 1107.511352539062 1124.234741210938 1106.432739257812 C 1110.65869140625 1105.410034179688 1095.702514648438 1103.876831054688 1079.781494140625 1101.875854492188 C 1050.602416992188 1098.208374023438 1017.885192871094 1092.981567382812 979.7607421875 1085.896362304688 C 948.3294067382812 1080.055053710938 912.9645385742188 1072.887817382812 871.64501953125 1063.98486328125 C 835.1524047851562 1056.1220703125 798.7240600585938 1047.930908203125 763.494873046875 1040.009155273438 C 709.6668701171875 1027.905517578125 658.8240356445312 1016.473205566406 616.0408935546875 1008.08837890625 C 593.1675415039062 1003.605712890625 574.326904296875 1000.329162597656 558.4423828125 998.072021484375 C 540.7824096679688 995.5625 527.0307006835938 994.342529296875 516.4017333984375 994.342529296875 C 508.6307067871094 994.342529296875 500.8400573730469 994.3578491210938 493.3058776855469 994.3728637695312 C 485.9928894042969 994.3873291015625 478.4307250976562 994.4022216796875 471.1090393066406 994.4022216796875 C 436.9175415039062 994.4022216796875 408.4883728027344 994.0695190429688 380.8775329589844 992.446044921875 C 365.6657104492188 991.551513671875 351.94189453125 990.3297119140625 338.9215393066406 988.7108764648438 C 324.6557006835938 986.93701171875 311.6342163085938 984.739501953125 299.1132202148438 981.99267578125 C 285.8968811035156 979.0933837890625 273.2357177734375 975.541015625 261.4815368652344 971.4343872070312 C 249.0800476074219 967.1015014648438 237.1598815917969 961.968505859375 226.0522155761719 956.1781616210938 C 214.4473724365234 950.1285400390625 203.2757110595703 943.1256713867188 192.8477172851562 935.3643798828125 C 182.0302124023438 927.3131713867188 171.6143798828125 918.1498413085938 161.8897094726562 908.1292114257812 C 156.9518737792969 903.0411987304688 151.1617126464844 897.0325317382812 144.9257202148438 890.10400390625 C 137.6553802490234 882.0261840820312 131.3623809814453 874.4573364257812 125.6872100830078 866.96484375 C 118.7207107543945 857.7672119140625 112.7545471191406 848.725341796875 107.9545440673828 840.0906982421875 C 102.357048034668 830.0215454101562 98.16804504394531 820.1913452148438 95.50371551513672 810.8733520507812 C 93.04804992675781 802.2848510742188 92.23271179199219 801.135009765625 90.60821533203125 798.8441772460938 C 88.48912048339844 795.85546875 84.94281768798828 790.8538818359375 74.15445709228516 763.6237182617188 C 72.89611053466797 758.2261962890625 70.67869567871094 751.6038818359375 68.53437805175781 745.1995239257812 C 66.50354766845703 739.1343383789062 64.40370941162109 732.8626708984375 63.20054626464844 727.8406982421875 C 62.77221298217773 726.051025390625 62.25437927246094 725.2748413085938 61.79754638671875 724.5900268554688 C 61.29971313476562 723.843994140625 60.82954788208008 723.1392211914062 60.47404479980469 721.0400390625 C 60.34771347045898 720.2911987304688 59.75871276855469 719.2200317382812 59.18938064575195 718.1842041015625 C 58.75405502319336 717.392578125 58.21932220458984 716.4198608398438 58.14705657958984 715.9805908203125 C 58.18521881103516 715.9783325195312 58.22601699829102 715.9774169921875 58.25688171386719 715.9766845703125 C 58.44787979125977 715.9720458984375 58.84521484375 715.9627075195312 58.98871231079102 715.586669921875 C 59.14677810668945 715.1727905273438 58.84146118164062 714.8167114257812 58.04866790771484 714.0701904296875 C 54.52216720581055 706.7778930664062 51.27158737182617 699.068603515625 48.38654708862305 691.1546630859375 C 45.61421203613281 683.5501708984375 43.09154510498047 675.5150146484375 40.88854598999023 667.2725219726562 C 36.77371215820312 651.8768310546875 33.66504669189453 635.5617065429688 31.38454627990723 617.3948364257812 C 29.41787910461426 601.7266845703125 28.09221267700195 584.7843627929688 27.33188056945801 565.5996704101562 C 26.57804679870605 546.5795288085938 26.48138046264648 527.482666015625 26.48138046264648 512.970703125 C 26.48138046264648 501.703369140625 26.46821403503418 490.6903686523438 26.45554733276367 480.0398559570312 C 26.42988014221191 458.52734375 26.40321350097656 436.2823486328125 26.48138046264648 410.2160339355469 C 26.55004692077637 387.2796936035156 26.92771339416504 360.1690368652344 29.20754623413086 332.9986877441406 C 30.39254570007324 318.8770141601562 32.03271484375 305.5840148925781 34.08254623413086 293.4891967773438 C 36.38388061523438 279.9100341796875 39.29787826538086 267.2566833496094 42.74371337890625 255.8805236816406 C 47.11071395874023 241.4630279541016 52.93338012695312 222.5985260009766 59.24904632568359 204.5408630371094 C 65.61971282958984 186.3263549804688 71.84154510498047 170.7241973876953 78.27021026611328 156.842529296875 C 81.84654998779297 149.120361328125 85.56504821777344 141.7793579101562 89.32288360595703 135.0233612060547 C 93.29937744140625 127.8741912841797 97.47104644775391 121.1075210571289 101.7218780517578 114.9113616943359 C 106.1812133789062 108.4111938476562 110.8858795166016 102.3076934814453 115.7050476074219 96.77052307128906 C 120.7287139892578 90.99868774414062 126.0467147827148 85.64685821533203 131.5113830566406 80.86335754394531 C 133.1287078857422 79.44769287109375 157.1977081298828 65.00019073486328 178.4333801269531 52.25352478027344 C 196.01904296875 41.69785690307617 211.2063751220703 32.58169174194336 212.6222076416016 31.49552536010742 C 220.2140502929688 25.67202377319336 227.9605407714844 20.61319160461426 235.6463775634766 16.45935821533203 C 243.0188751220703 12.47485828399658 250.6132202148438 9.173857688903809 258.2182006835938 6.64835786819458 C 272.3088684082031 1.968857884407043 286.9775390625 -0.3059754371643066 303.0627136230469 -0.3059754371643066 C 315.4920349121094 -0.3059754371643066 328.7175598144531 1.009191274642944 344.6840515136719 3.832691192626953 C 358.9165344238281 6.34952449798584 373.4925537109375 9.738691329956055 388.9242248535156 13.32669162750244 C 407.7455444335938 17.70285797119141 427.2075500488281 22.22802543640137 448.3015441894531 25.71219062805176 C 472.2825317382812 29.6733570098877 494.5583801269531 31.59885787963867 516.4017333984375 31.59885787963867 C 522.3400268554688 31.59885787963867 533.6770629882812 26.46052551269531 549.3678588867188 19.34869194030762 C 560.9987182617188 14.07702445983887 575.4736938476562 7.516191005706787 591.62353515625 1.354024529457092 C 610.5100708007812 -5.852475643157959 628.01123046875 -11.13547515869141 645.1268920898438 -14.79697513580322 C 687.9625244140625 -23.96097564697266 741.2708740234375 -34.66580963134766 803.5712280273438 -46.61414337158203 C 853.4125366210938 -56.17314147949219 909.087890625 -66.54497528076172 969.0503540039062 -77.44147491455078 C 1065.755493164062 -95.01480102539062 1142.802124023438 -108.3440780639648 1151.346069335938 -109.8193817138672 C 1150.0625 -105.2502746582031 1143.14794921875 -80.50149536132812 1133.40673828125 -43.10347366333008 C 1123.468994140625 -4.950642108917236 1108.473266601562 54.54452514648438 1093.46923828125 121.3131942749023 C 1076.604736328125 196.3620300292969 1063.1669921875 265.1155395507812 1053.529907226562 325.6641845703125 C 1041.481201171875 401.3628540039062 1035.3720703125 464.3818664550781 1035.3720703125 512.970703125 C 1035.3720703125 520.8421630859375 1036.236083984375 529.4976806640625 1037.939819335938 538.696533203125 C 1039.562744140625 547.4577026367188 1042.002075195312 557.0042114257812 1045.190063476562 567.0708618164062 C 1051.070922851562 585.6406860351562 1059.531005859375 606.321533203125 1071.05419921875 630.2948608398438 C 1080.655883789062 650.2708740234375 1092.62060546875 672.9641723632812 1107.632202148438 699.6715087890625 C 1121.018920898438 723.4876708984375 1135.55224609375 748.2503662109375 1149.60693359375 772.1976928710938 C 1169.058349609375 805.34033203125 1189.171997070312 839.6112060546875 1206.65234375 872.0558471679688 C 1216.06201171875 889.5206909179688 1223.973388671875 905.0671997070312 1230.8388671875 919.5836791992188 C 1238.544555664062 935.8768310546875 1244.744018554688 950.4622192382812 1249.79150390625 964.17333984375 C 1255.209716796875 978.8910522460938 1259.235107421875 992.5645141601562 1261.755737304688 1004.814025878906 C 1263.084594726562 1011.271179199219 1264.031860351562 1017.502502441406 1264.571411132812 1023.334716796875 C 1265.127319335938 1029.342529296875 1265.267700195312 1035.112548828125 1264.98876953125 1040.484497070312 C 1264.702026367188 1046.002685546875 1263.96435546875 1051.269165039062 1262.795654296875 1056.137329101562 C 1261.598022460938 1061.127197265625 1259.911376953125 1065.849853515625 1257.782836914062 1070.173828125 C 1255.60400390625 1074.600219726562 1252.896362304688 1078.7421875 1249.735229492188 1082.484985351562 C 1246.501220703125 1086.31396484375 1242.695556640625 1089.83984375 1238.424072265625 1092.96484375 C 1234.862426757812 1095.5703125 1230.492065429688 1097.868408203125 1225.4345703125 1099.795043945312 C 1220.497680664062 1101.675659179688 1214.767211914062 1103.25537109375 1208.40185546875 1104.490234375 C 1202.207885742188 1105.691650390625 1195.236938476562 1106.600830078125 1187.682495117188 1107.1923828125 C 1180.3515625 1107.766235351562 1172.260498046875 1108.057373046875 1163.634765625 1108.057739257812 Z" stroke="none"/>
    <path d="M 1150.650756835938 -109.1917724609375 C 1138.972412109375 -107.1734619140625 1063.39306640625 -94.0772705078125 969.138671875 -76.9493408203125 C 909.1780395507812 -66.0531005859375 853.5045166015625 -55.6817626953125 803.6648559570312 -46.1231689453125 C 741.3682250976562 -34.17529296875 688.0635375976562 -23.4713134765625 645.2313842773438 -14.30810546875 C 628.1410522460938 -10.6519775390625 610.6640625 -5.3759765625 591.8018798828125 1.8211669921875 C 575.6661987304688 7.9779052734375 561.1988525390625 14.53515625 549.57421875 19.8040771484375 C 533.8262329101562 26.94171142578125 522.4480590820312 32.098876953125 516.4017333984375 32.098876953125 C 494.5307006835938 32.098876953125 472.2283935546875 30.17120361328125 448.2200317382812 26.20550537109375 C 427.1100463867188 22.71875 407.6400756835938 18.191650390625 388.81103515625 13.813720703125 C 373.3858642578125 10.2271728515625 358.81640625 6.8394775390625 344.596923828125 4.3250732421875 C 328.659912109375 1.5067138671875 315.4620361328125 0.1939697265625 303.062744140625 0.1939697265625 C 287.0321044921875 0.1939697265625 272.4149169921875 2.4605712890625 258.3758544921875 7.122802734375 C 250.79833984375 9.63916015625 243.2310791015625 12.928466796875 235.884033203125 16.899169921875 C 228.2215576171875 21.0404052734375 220.4974365234375 26.0848388671875 212.926513671875 31.892333984375 C 211.4881591796875 32.99566650390625 196.2894287109375 42.11871337890625 178.690673828125 52.68218994140625 C 158.5234375 64.7877197265625 133.4244384765625 79.85333251953125 131.8406982421875 81.23968505859375 C 126.392822265625 86.0081787109375 121.091064453125 91.343994140625 116.0821533203125 97.098876953125 C 111.275390625 102.6215209960938 106.58251953125 108.709716796875 102.134033203125 115.1942138671875 C 97.89208984375 121.3775024414062 93.728759765625 128.130859375 89.759765625 135.266357421875 C 86.0079345703125 142.0115356445312 82.294921875 149.341552734375 78.723876953125 157.0525512695312 C 72.302001953125 170.9193725585938 66.0860595703125 186.5068359375 59.7208251953125 204.7058715820312 C 53.408203125 222.7546997070312 47.5877685546875 241.6126708984375 43.2220458984375 256.0253295898438 C 39.7823486328125 267.3815307617188 36.8731689453125 280.0142211914062 34.575439453125 293.5726928710938 C 32.52783203125 305.6538696289062 30.8895263671875 318.9326782226562 29.7056884765625 333.04052734375 C 27.4273681640625 360.19287109375 27.050048828125 387.2908325195312 26.9813232421875 410.217529296875 C 26.9031982421875 436.2828369140625 26.929931640625 458.5272216796875 26.95556640625 480.0393676757812 C 26.96826171875 490.6898803710938 26.9813232421875 501.7031860351562 26.9813232421875 512.970703125 C 26.9813232421875 527.4782104492188 27.0780029296875 546.568359375 27.83154296875 565.5800170898438 C 28.5911865234375 584.7501831054688 29.915771484375 601.6787109375 31.8807373046875 617.3327026367188 C 34.158203125 635.4766845703125 37.2626953125 651.7698974609375 41.3717041015625 667.1435546875 C 43.5709228515625 675.3717041015625 46.0889892578125 683.3927001953125 48.856201171875 690.9833984375 C 51.7244873046875 698.8511962890625 54.954833984375 706.5165405273438 58.458251953125 713.7688598632812 C 59.1917724609375 714.4598388671875 59.7371826171875 715.0283813476562 59.4559326171875 715.7650146484375 C 59.343505859375 716.059326171875 59.116943359375 716.279296875 58.8189697265625 716.3902587890625 C 59.0316162109375 716.859619140625 59.3848876953125 717.502197265625 59.6273193359375 717.943359375 C 60.2440185546875 719.0650634765625 60.8265380859375 720.12451171875 60.9669189453125 720.95654296875 C 61.3046875 722.9505615234375 61.7257080078125 723.5816650390625 62.21337890625 724.3125 C 62.693603515625 725.0322265625 63.2376708984375 725.847900390625 63.6868896484375 727.7241821289062 C 64.884765625 732.7244873046875 66.9810791015625 738.9853515625 69.0081787109375 745.0400390625 C 71.151611328125 751.44140625 73.36767578125 758.0596923828125 74.6328125 763.4739379882812 C 85.38818359375 790.6172485351562 88.91064453125 795.5855712890625 91.0159912109375 798.5546875 C 92.6732177734375 800.8920288085938 93.5050048828125 802.065185546875 95.984375 810.7360229492188 C 98.63818359375 820.0172119140625 102.8125 829.8118896484375 108.391357421875 839.84765625 C 113.1800537109375 848.4620361328125 119.1334228515625 857.48388671875 126.0859375 866.662841796875 C 131.7523193359375 874.14404296875 138.0364990234375 881.702392578125 145.29736328125 889.76953125 C 151.527587890625 896.6917114257812 157.3138427734375 902.6961669921875 162.24853515625 907.7808837890625 C 171.9547119140625 917.7825317382812 182.3502197265625 926.9280395507812 193.1463623046875 934.96337890625 C 203.5531005859375 942.7088623046875 214.7020263671875 949.6973876953125 226.2833251953125 955.7346801757812 C 237.369873046875 961.51416015625 249.2677001953125 966.6373291015625 261.6466064453125 970.962158203125 C 273.3818359375 975.0623779296875 286.0235595703125 978.6091918945312 299.2203369140625 981.5043334960938 C 311.7261962890625 984.2478637695312 324.732666015625 986.44287109375 338.983154296875 988.2147216796875 C 351.99267578125 989.8322143554688 365.7060546875 991.0528564453125 380.9068603515625 991.9468383789062 C 408.50537109375 993.5697021484375 436.9263916015625 993.9022216796875 471.1090698242188 993.9022216796875 C 478.4302368164062 993.9022216796875 485.9920654296875 993.88720703125 493.3048706054688 993.8728637695312 C 500.8392333984375 993.8578491210938 508.6301879882812 993.842529296875 516.4017333984375 993.842529296875 C 527.0550537109375 993.842529296875 540.8303833007812 995.064208984375 558.514892578125 997.5770263671875 C 574.4090576171875 999.835693359375 593.2593994140625 1003.113525390625 616.1427001953125 1007.598205566406 C 658.9353637695312 1015.984497070312 709.7843627929688 1027.41796875 763.6190185546875 1039.522705078125 C 798.8460693359375 1047.443481445312 835.2723999023438 1055.634033203125 871.7615356445312 1063.495849609375 C 913.0748901367188 1072.397338867188 948.433837890625 1079.563232421875 979.8592529296875 1085.4033203125 C 1017.972412109375 1092.486572265625 1050.6787109375 1097.7119140625 1079.847045898438 1101.378173828125 C 1095.759033203125 1103.378173828125 1110.706420898438 1104.91064453125 1124.273559570312 1105.933227539062 C 1138.579223632812 1107.010986328125 1151.822021484375 1107.557739257812 1163.634521484375 1107.557739257812 C 1172.247192382812 1107.557739257812 1180.325073242188 1107.267211914062 1187.643432617188 1106.6943359375 C 1195.1787109375 1106.1044921875 1202.130859375 1105.197875976562 1208.306518554688 1103.999877929688 C 1214.6435546875 1102.770385742188 1220.34619140625 1101.19873046875 1225.25634765625 1099.328002929688 C 1230.272094726562 1097.417236328125 1234.602905273438 1095.140502929688 1238.128540039062 1092.561157226562 C 1242.3681640625 1089.459716796875 1246.14453125 1085.961059570312 1249.35302734375 1082.162353515625 C 1252.488037109375 1078.45068359375 1255.17333984375 1074.342895507812 1257.334228515625 1069.953002929688 C 1259.446411132812 1065.662231445312 1261.120361328125 1060.974731445312 1262.3095703125 1056.0205078125 C 1263.470825195312 1051.182250976562 1264.204223632812 1045.946411132812 1264.4892578125 1040.45849609375 C 1264.76708984375 1035.110473632812 1264.627075195312 1029.36474609375 1264.073486328125 1023.380676269531 C 1263.535522460938 1017.566833496094 1262.591064453125 1011.35400390625 1261.265869140625 1004.914855957031 C 1258.750244140625 992.689697265625 1254.73193359375 979.0403442382812 1249.322387695312 964.3460083007812 C 1244.280029296875 950.6490478515625 1238.086059570312 936.0770263671875 1230.386840820312 919.79736328125 C 1223.525146484375 905.2888793945312 1215.617553710938 889.75 1206.212158203125 872.2930297851562 C 1188.736206054688 839.8563232421875 1168.624877929688 805.58935546875 1149.17578125 772.45068359375 C 1135.119750976562 748.5013427734375 1120.585205078125 723.7366943359375 1107.196411132812 699.9163818359375 C 1092.179443359375 673.19970703125 1080.209716796875 650.4971923828125 1070.603515625 630.5115356445312 C 1059.070190429688 606.5167236328125 1050.601318359375 585.8143310546875 1044.713256835938 567.2216796875 C 1041.51904296875 557.135498046875 1039.07470703125 547.56884765625 1037.4482421875 538.7875366210938 C 1035.73876953125 529.5587158203125 1034.8720703125 520.8726806640625 1034.8720703125 512.970703125 C 1034.8720703125 464.355712890625 1040.9833984375 401.3101806640625 1053.036010742188 325.5855102539062 C 1062.675048828125 265.0265502929688 1076.114501953125 196.2625122070312 1092.9814453125 121.2035522460938 C 1107.987060546875 54.42803955078125 1122.984252929688 -5.072998046875 1132.9228515625 -43.2294921875 C 1142.21435546875 -78.90087890625 1148.934814453125 -103.06689453125 1150.650756835938 -109.1917724609375 M 1152.042236328125 -110.44677734375 C 1152.042236328125 -110.44677734375 1035.8720703125 300.0663452148438 1035.8720703125 512.970703125 C 1035.8720703125 666.5280151367188 1359.239379882812 1005.19970703125 1238.718994140625 1093.368408203125 C 1224.071166992188 1104.084350585938 1197.802856445312 1108.557739257812 1163.634521484375 1108.557739257812 C 991.3056640625 1108.557739257812 617.6781005859375 994.842529296875 516.4017333984375 994.842529296875 C 501.0130615234375 994.842529296875 485.89990234375 994.9022216796875 471.109130859375 994.9022216796875 C 345.2542724609375 994.9022216796875 241.2154541015625 990.5875244140625 161.5308837890625 908.4773559570312 C 142.10205078125 888.4571533203125 106.483154296875 851.0911865234375 95.0228271484375 811.0108642578125 C 89.3455810546875 791.1551513671875 92.60791015625 811.564208984375 73.6756591796875 763.773193359375 C 71.22802734375 753.2483520507812 65.1865234375 738.2770385742188 62.71435546875 727.9571533203125 C 61.83935546875 724.3021850585938 60.68017578125 725.2510375976562 59.9808349609375 721.12353515625 C 59.7535400390625 719.7755126953125 57.6541748046875 716.9148559570312 57.638916015625 715.9048461914062 C 57.6300048828125 714.9148559570312 59.6397705078125 716.2471923828125 57.638916015625 714.3712158203125 C 28.5145263671875 654.2093505859375 25.9813232421875 583.2291870117188 25.9813232421875 512.970703125 C 25.9813232421875 479.0574951171875 25.8643798828125 449.2510375976562 25.9813232421875 410.2145385742188 C 26.125732421875 362.0260009765625 27.683349609375 303.8758544921875 42.2650146484375 255.7355346679688 C 63.4520263671875 185.7882080078125 86.24267578125 119.8236694335938 131.1820068359375 80.4871826171875 C 134.153564453125 77.88604736328125 209.182861328125 33.503662109375 212.31787109375 31.098876953125 C 243.5107421875 7.1717529296875 272.8575439453125 -0.805908203125 303.062744140625 -0.805908203125 C 363.4785766601562 -0.805908203125 427.344970703125 31.098876953125 516.4017333984375 31.098876953125 C 531.0906982421875 31.098876953125 580.79736328125 -1.5462646484375 645.022216796875 -15.2860107421875 C 832.834716796875 -55.4649658203125 1152.042236328125 -110.44677734375 1152.042236328125 -110.44677734375 Z" stroke="none" fill="#00aaf8"/>
  </g>
</svg>
